<svg width="103" height="58" viewBox="0 0 103 58" fill="none" xmlns="http://www.w3.org/2000/svg">
<g clip-path="url(#clip0_9_8)">
<path d="M103.5 50.5C103.5 54.6438 100.143 58 96 58L7.80615 57.9999C3.66478 57.9999 0.306152 54.6437 0.306152 50.4999V7.81544C0.306152 3.67545 3.66478 0.315445 7.80615 0.315445L96 0.315544C100.143 0.315544 103.5 3.67554 103.5 7.81554V50.5Z" fill="white" stroke="black" stroke-width="0.6"/>
<path fill-rule="evenodd" clip-rule="evenodd" d="M100 50C100 52.7613 97.7613 55 95 55H8.66724C5.90599 55 3.66724 52.7613 3.66724 50V8.37553C3.66724 5.61428 5.90599 3.37553 8.66724 3.37553H95C97.7613 3.37553 100 5.61428 100 8.37553V50Z" fill="#00674C"/>
<path d="M82.7714 38.3463L81.9227 35.7075C81.9227 35.7075 81.7338 35.18 82.1488 34.745C82.6563 34.2175 83.3188 34.6325 83.3188 34.6325L92.0002 40.6137L83.2062 46.6362C83.2062 46.6362 82.6401 46.9 82.1488 46.4463C81.7513 46.07 81.9227 45.5413 81.9227 45.5413L82.7814 42.8488H74V38.3412H82.7714V38.3463Z" fill="white"/>
<path d="M27.1826 16.2387C25.1313 14.225 21.6963 14.2837 19.1863 14.325H19.0301V13.9925L19.7775 11.6462C19.7775 11.6462 19.9263 11.1875 19.58 10.8575C19.1525 10.4625 18.6587 10.6925 18.6587 10.6925L11 15.9387L18.5613 21.1487C18.5613 21.1487 19.1375 21.51 19.58 21.05C19.9413 20.6712 19.7775 20.2125 19.7775 20.2125L19.0374 17.9137V17.6987H19.2449C21.0487 17.67 23.7737 17.6225 24.8162 18.6462C25.0337 18.8612 25.3262 19.2537 25.3262 20.1737C25.3262 20.7312 24.4787 21.855 23.8012 22.7575C22.6087 24.3412 21.2588 26.1375 21.2588 28.2675V30.0037H24.6337V28.2675C24.6337 27.265 25.6249 25.9487 26.4987 24.7862C27.5799 23.3487 28.6999 21.8587 28.6999 20.1737C28.6999 18.5562 28.1901 17.23 27.1826 16.2387Z" fill="white"/>
<path d="M42.8191 16.4475C42.8191 16.0497 42.7818 15.7141 42.7072 15.4406C42.6409 15.1671 42.5249 14.9475 42.3591 14.7818C42.2017 14.616 41.9903 14.4959 41.7251 14.4213C41.4599 14.3467 41.1326 14.3094 40.7431 14.3094C40.4945 14.3094 40.2417 14.3135 39.9848 14.3218C39.7279 14.3301 39.4544 14.3508 39.1644 14.384V18.6354H40.7804C41.1367 18.6354 41.4434 18.6064 41.7003 18.5483C41.9572 18.4903 42.1685 18.3826 42.3343 18.2251C42.5 18.0594 42.6202 17.8356 42.6948 17.5539C42.7776 17.2721 42.8191 16.9033 42.8191 16.4475ZM45.1809 16.4475C45.1809 17.7652 44.8536 18.7721 44.1989 19.4682C43.5442 20.1561 42.5166 20.5 41.116 20.5H39.1644V25H36.8646V12.6436C37.4116 12.5856 38 12.5401 38.6298 12.5069C39.268 12.4655 39.9309 12.4448 40.6188 12.4448C41.2901 12.4448 41.9033 12.5152 42.4586 12.6561C43.0138 12.7887 43.4945 13.0124 43.9006 13.3273C44.3066 13.634 44.6215 14.0442 44.8453 14.558C45.0691 15.0635 45.1809 15.6934 45.1809 16.4475ZM53.8483 25L53.7364 23.9309H53.6743C53.3842 24.3536 53.0237 24.6809 52.5928 24.913C52.1701 25.1367 51.6522 25.2486 51.0389 25.2486C50.5168 25.2486 50.0652 25.174 49.6839 25.0249C49.311 24.884 49.0002 24.6561 48.7516 24.3412C48.5113 24.0262 48.3331 23.6243 48.2171 23.1354C48.1011 22.6381 48.0431 22.0373 48.0431 21.3329V14.8439H50.2931V20.674C50.2931 21.0552 50.3055 21.4116 50.3304 21.7431C50.3552 22.0663 50.4174 22.3481 50.5168 22.5884C50.6163 22.8204 50.7696 23.0028 50.9768 23.1354C51.1839 23.268 51.4699 23.3343 51.8345 23.3343C52.1826 23.3343 52.4685 23.2845 52.6922 23.1851C52.9243 23.0773 53.1107 22.924 53.2516 22.7251C53.3925 22.5262 53.492 22.2818 53.55 21.9917C53.608 21.6934 53.637 21.3494 53.637 20.9599V14.8439H55.887V25H53.8483ZM65.3924 19.9282C65.3924 19.4475 65.3717 18.9959 65.3302 18.5732C65.2888 18.1423 65.1976 17.7693 65.0567 17.4544C64.9242 17.1312 64.7294 16.8785 64.4725 16.6961C64.2239 16.5055 63.8841 16.4102 63.4532 16.4102C62.8565 16.4102 62.3965 16.5843 62.0733 16.9323C61.7501 17.2721 61.5885 17.7859 61.5885 18.4738V21.0345C61.5885 21.3743 61.6175 21.6934 61.6755 21.9917C61.7418 22.2901 61.8454 22.5511 61.9863 22.7749C62.1355 22.9986 62.3261 23.1768 62.5581 23.3094C62.7902 23.442 63.0761 23.5083 63.4159 23.5083C63.8302 23.5083 64.1659 23.4088 64.4228 23.2099C64.6797 23.0028 64.8786 22.7334 65.0195 22.4019C65.1686 22.0622 65.2681 21.6768 65.3178 21.2459C65.3675 20.8149 65.3924 20.3757 65.3924 19.9282ZM67.6797 19.8909C67.6797 20.5373 67.6134 21.1796 67.4808 21.8177C67.3565 22.4558 67.1493 23.0276 66.8592 23.5331C66.5692 24.0387 66.188 24.4489 65.7156 24.7638C65.2432 25.0704 64.6631 25.2238 63.9753 25.2238C63.4117 25.2238 62.9311 25.1077 62.5333 24.8757C62.1355 24.6436 61.7916 24.2749 61.5015 23.7693H61.4642L61.1783 25H59.3634V11.5124H61.6134V15.8508H61.6258C61.891 15.4033 62.2184 15.0925 62.6079 14.9185C63.0056 14.7362 63.4532 14.645 63.9504 14.645C64.6134 14.645 65.1811 14.7818 65.6534 15.0552C66.1258 15.3204 66.5112 15.6892 66.8095 16.1616C67.1079 16.634 67.3275 17.1892 67.4684 17.8273C67.6092 18.4655 67.6797 19.1533 67.6797 19.8909ZM74.4563 25C74.2491 25.0414 74.0088 25.0704 73.7353 25.087C73.4618 25.1119 73.2049 25.1243 72.9646 25.1243C72.5585 25.1243 72.2146 25.0829 71.9328 25C71.6593 24.9254 71.4356 24.8011 71.2615 24.6271C71.0958 24.453 70.9756 24.2251 70.901 23.9434C70.8265 23.6533 70.7892 23.297 70.7892 22.8743V11.5124H73.0392V22.3149C73.0392 22.5138 73.0516 22.6754 73.0765 22.7997C73.1096 22.9157 73.1593 23.0069 73.2256 23.0732C73.3002 23.1312 73.3955 23.1685 73.5115 23.1851C73.6276 23.2017 73.7726 23.2099 73.9466 23.2099H74.4563V25ZM79.5756 12.2831C79.5756 12.6561 79.4471 12.9586 79.1902 13.1906C78.9333 13.4144 78.5977 13.5262 78.1833 13.5262C77.769 13.5262 77.4375 13.4144 77.1889 13.1906C76.9402 12.9586 76.8159 12.6561 76.8159 12.2831C76.8159 11.9102 76.9402 11.616 77.1889 11.4006C77.4375 11.1768 77.769 11.0649 78.1833 11.0649C78.606 11.0649 78.9416 11.1768 79.1902 11.4006C79.4471 11.616 79.5756 11.9102 79.5756 12.2831ZM77.0646 25V14.8439H79.327V25H77.0646ZM89.2145 17.355C88.883 17.0566 88.5515 16.8287 88.2201 16.6713C87.8886 16.5138 87.4908 16.4351 87.0267 16.4351C86.5543 16.4351 86.169 16.5428 85.8706 16.7583C85.5723 16.9738 85.3361 17.2514 85.162 17.5912C84.9963 17.9227 84.8803 18.2914 84.814 18.6975C84.756 19.1036 84.727 19.5014 84.727 19.8909C84.727 20.2887 84.7601 20.6989 84.8264 21.1215C84.8927 21.5442 85.0129 21.9254 85.1869 22.2652C85.3609 22.605 85.5971 22.8867 85.8955 23.1105C86.2021 23.326 86.5916 23.4337 87.064 23.4337C87.5281 23.4337 87.9466 23.355 88.3195 23.1975C88.7007 23.0318 89.0736 22.8039 89.4383 22.5138L90.1469 24.1671C89.6248 24.5152 89.0985 24.7804 88.5681 24.9627C88.046 25.1367 87.4742 25.2238 86.8527 25.2238C86.0654 25.2238 85.3899 25.0829 84.8264 24.8011C84.2712 24.5193 83.8154 24.1381 83.459 23.6575C83.1027 23.1685 82.8416 22.605 82.6759 21.9669C82.5184 21.3204 82.4397 20.6409 82.4397 19.9282C82.4397 19.2072 82.5267 18.5276 82.7007 17.8895C82.883 17.2431 83.1565 16.6837 83.5212 16.2113C83.8941 15.7307 84.3665 15.3494 84.9383 15.0677C85.5101 14.7859 86.1897 14.645 86.977 14.645C87.5571 14.645 88.104 14.7403 88.6178 14.9309C89.1317 15.1133 89.6289 15.3785 90.1096 15.7265L89.2145 17.355Z" fill="white"/>
<path d="M24.1519 47H21.529L19.4406 38.634H19.3536L17.2901 47H14.6298L11.9945 34.5691H14.4434L16.0345 44.0414H16.0843L18.3964 34.5691H20.4972L22.7721 44.0539H22.8467L24.4503 34.5691H26.8494L24.1519 47ZM35.5144 41.9282C35.5144 41.4724 35.4854 41.0373 35.4274 40.6229C35.3777 40.2003 35.2741 39.8315 35.1166 39.5166C34.9674 39.2017 34.752 38.9489 34.4702 38.7583C34.1884 38.5677 33.8238 38.4724 33.3763 38.4724C32.9205 38.4724 32.5517 38.5677 32.2699 38.7583C31.9882 38.9406 31.7685 39.1934 31.6111 39.5166C31.4536 39.8315 31.3459 40.2003 31.2879 40.6229C31.2382 41.0373 31.2133 41.4724 31.2133 41.9282C31.2133 42.4503 31.2423 42.9268 31.3003 43.3577C31.3666 43.7804 31.4785 44.1492 31.6359 44.4641C31.8017 44.7707 32.0254 45.011 32.3072 45.1851C32.589 45.3508 32.9453 45.4337 33.3763 45.4337C33.8072 45.4337 34.1594 45.3508 34.4329 45.1851C34.7064 45.011 34.9219 44.7707 35.0793 44.4641C35.2451 44.1492 35.3569 43.7804 35.4149 43.3577C35.4812 42.9268 35.5144 42.4503 35.5144 41.9282ZM37.8017 41.9282C37.8017 42.7238 37.7105 43.4489 37.5282 44.1036C37.3542 44.75 37.0807 45.3052 36.7078 45.7693C36.3431 46.2334 35.8832 46.5939 35.3279 46.8508C34.7727 47.0994 34.1221 47.2238 33.3763 47.2238C32.6304 47.2238 31.9757 47.0994 31.4122 46.8508C30.8569 46.5939 30.3928 46.2376 30.0199 45.7818C29.6553 45.3177 29.3818 44.7583 29.1995 44.1036C29.0172 43.4489 28.926 42.7238 28.926 41.9282C28.926 41.1492 29.013 40.4365 29.187 39.7901C29.3694 39.1436 29.6428 38.5884 30.0075 38.1243C30.3721 37.6602 30.8321 37.2997 31.3873 37.0428C31.9509 36.7776 32.6138 36.645 33.3763 36.645C34.1221 36.645 34.7685 36.7693 35.3155 37.018C35.8707 37.2666 36.3307 37.6229 36.6953 38.087C37.0683 38.5428 37.3459 39.0981 37.5282 39.7528C37.7105 40.3992 37.8017 41.1243 37.8017 41.9282ZM45.5921 38.7086C45.2109 38.7086 44.8711 38.7417 44.5728 38.808C44.2744 38.8743 44.0217 38.9903 43.8145 39.1561C43.6073 39.3218 43.4457 39.5456 43.3297 39.8273C43.2219 40.1091 43.1681 40.4613 43.1681 40.884V47H40.9181V36.8439H42.9319L43.0935 38.0994H43.1059C43.3711 37.5939 43.6943 37.2251 44.0755 36.9931C44.465 36.761 44.983 36.645 45.6294 36.645H46.1764V38.7086H45.5921ZM54.2875 47L52.0873 42.5622L51.0182 43.9296V47H48.7931V33.5124H51.0431V41.2445H51.0928L54.0762 36.8439H56.6619L53.6784 41.0829L56.8359 47H54.2875ZM65.4516 44.116C65.4516 44.6547 65.3646 45.1229 65.1905 45.5207C65.0248 45.9102 64.7803 46.2334 64.4571 46.4903C64.1422 46.739 63.7568 46.9213 63.301 47.0373C62.8452 47.1616 62.3356 47.2238 61.772 47.2238C61.0925 47.2238 60.4378 47.1367 59.8079 46.9627C59.1781 46.7804 58.5856 46.5152 58.0303 46.1671L58.801 44.4268C59.2071 44.7169 59.6712 44.9696 60.1933 45.1851C60.7237 45.3923 61.2499 45.4959 61.772 45.4959C62.2693 45.4959 62.6422 45.4006 62.8908 45.2099C63.1394 45.0193 63.2637 44.7044 63.2637 44.2652C63.2637 44.0249 63.1974 43.8218 63.0649 43.6561C62.9405 43.4903 62.7665 43.3453 62.5428 43.221C62.3273 43.0967 62.0787 42.9848 61.7969 42.8854C61.5151 42.7776 61.2251 42.6657 60.9267 42.5497C60.6118 42.4254 60.301 42.2845 59.9944 42.1271C59.6878 41.9696 59.4102 41.7749 59.1615 41.5428C58.9212 41.3025 58.7265 41.0166 58.5773 40.6851C58.4281 40.3536 58.3535 39.9558 58.3535 39.4917C58.3535 39.0193 58.4405 38.605 58.6146 38.2486C58.7969 37.8923 59.0455 37.5981 59.3604 37.366C59.6836 37.1257 60.0649 36.9475 60.5041 36.8315C60.9433 36.7072 61.4281 36.645 61.9585 36.645C62.5055 36.645 63.0483 36.6989 63.587 36.8066C64.1339 36.9144 64.656 37.0884 65.1533 37.3287L64.6187 39.0815C64.2707 38.866 63.8853 38.6961 63.4626 38.5718C63.04 38.4475 62.6091 38.3854 62.1698 38.3854C61.6809 38.3854 61.2831 38.4558 60.9765 38.5967C60.6698 38.7376 60.5165 39.0028 60.5165 39.3923C60.5165 39.5912 60.5704 39.761 60.6781 39.9019C60.7858 40.0428 60.9309 40.1713 61.1132 40.2873C61.3038 40.395 61.5151 40.4945 61.7472 40.5856C61.9875 40.6768 62.2403 40.7721 62.5055 40.8715C62.8452 40.9959 63.1892 41.1367 63.5372 41.2942C63.8853 41.4517 64.2002 41.6547 64.482 41.9033C64.772 42.1436 65.0041 42.442 65.1781 42.7983C65.3604 43.1547 65.4516 43.5939 65.4516 44.116Z" fill="white"/>
</g>
<defs>
<clipPath id="clip0_9_8">
<rect width="103" height="58" fill="white"/>
</clipPath>
</defs>
</svg>
